<svg width="351" height="436" viewBox="0 0 351 436" fill="none" xmlns="http://www.w3.org/2000/svg">
<path d="M171.5 93C266.217 93 343 169.783 343 264.5C343 359.217 266.217 436 171.5 436C76.7832 436 0 359.217 0 264.5C0 169.783 76.7832 93 171.5 93ZM171.5 105C83.4106 105 12 176.411 12 264.5C12 352.589 83.4106 424 171.5 424C259.589 424 331 352.589 331 264.5C331 176.411 259.589 105 171.5 105Z" fill="white"/>
<mask id="path-2-outside-1_1003_73" maskUnits="userSpaceOnUse" x="103" y="167" width="137" height="119" fill="black">
<rect fill="white" x="103" y="167" width="137" height="119"/>
<path d="M235.172 282H223.625L171.086 191L118.547 282H107L171.086 171L235.172 282Z"/>
</mask>
<path d="M235.172 282H223.625L171.086 191L118.547 282H107L171.086 171L235.172 282Z" fill="white"/>
<path d="M235.172 282V286C236.601 286 237.921 285.238 238.636 284C239.351 282.762 239.351 281.238 238.636 280L235.172 282ZM223.625 282L220.161 284C220.875 285.238 222.196 286 223.625 286V282ZM171.086 191L174.55 189C173.836 187.762 172.515 187 171.086 187C169.657 187 168.336 187.762 167.622 189L171.086 191ZM118.547 282V286C119.976 286 121.296 285.238 122.011 284L118.547 282ZM107 282L103.536 280C102.821 281.238 102.821 282.762 103.536 284C104.25 285.238 105.571 286 107 286V282ZM171.086 171L174.55 169C173.836 167.762 172.515 167 171.086 167C169.657 167 168.336 167.762 167.622 169L171.086 171ZM235.172 282V278H223.625V282V286H235.172V282ZM223.625 282L227.089 280L174.55 189L171.086 191L167.622 193L220.161 284L223.625 282ZM171.086 191L167.622 189L115.083 280L118.547 282L122.011 284L174.55 193L171.086 191ZM118.547 282V278H107V282V286H118.547V282ZM107 282L110.464 284L174.55 173L171.086 171L167.622 169L103.536 280L107 282ZM171.086 171L167.622 173L231.708 284L235.172 282L238.636 280L174.55 169L171.086 171Z" fill="white" mask="url(#path-2-outside-1_1003_73)"/>
<mask id="path-4-outside-2_1003_73" maskUnits="userSpaceOnUse" x="103" y="242" width="137" height="119" fill="black">
<rect fill="white" x="103" y="242" width="137" height="119"/>
<path d="M235.172 357H223.625L171.086 266L118.547 357H107L171.086 246L235.172 357Z"/>
</mask>
<path d="M235.172 357H223.625L171.086 266L118.547 357H107L171.086 246L235.172 357Z" fill="white"/>
<path d="M235.172 357V361C236.601 361 237.921 360.238 238.636 359C239.351 357.762 239.351 356.238 238.636 355L235.172 357ZM223.625 357L220.161 359C220.875 360.238 222.196 361 223.625 361V357ZM171.086 266L174.55 264C173.836 262.762 172.515 262 171.086 262C169.657 262 168.336 262.762 167.622 264L171.086 266ZM118.547 357V361C119.976 361 121.296 360.238 122.011 359L118.547 357ZM107 357L103.536 355C102.821 356.238 102.821 357.762 103.536 359C104.25 360.238 105.571 361 107 361V357ZM171.086 246L174.55 244C173.836 242.762 172.515 242 171.086 242C169.657 242 168.336 242.762 167.622 244L171.086 246ZM235.172 357V353H223.625V357V361H235.172V357ZM223.625 357L227.089 355L174.55 264L171.086 266L167.622 268L220.161 359L223.625 357ZM171.086 266L167.622 264L115.083 355L118.547 357L122.011 359L174.55 268L171.086 266ZM118.547 357V353H107V357V361H118.547V357ZM107 357L110.464 359L174.55 248L171.086 246L167.622 244L103.536 355L107 357ZM171.086 246L167.622 248L231.708 359L235.172 357L238.636 355L174.55 244L171.086 246Z" fill="white" mask="url(#path-4-outside-2_1003_73)"/>
<path d="M298.5 121V0C298.5 21.1425 316 21.1425 316 21.1425C298.5 21.1425 299.493 87.7142 298.5 121Z" fill="white"/>
<path d="M298.5 121V0C298.5 21.1425 281 21.1425 281 21.1425C298.5 21.1425 297.507 87.7142 298.5 121Z" fill="white"/>
<path d="M298.5 0V121M298.5 0C298.5 21.1425 281 21.1425 281 21.1425C298.5 21.1425 297.507 87.7142 298.5 121M298.5 0C298.5 21.1425 316 21.1425 316 21.1425C298.5 21.1425 299.493 87.7142 298.5 121" stroke="white"/>
<path d="M333.5 144V56C333.5 71.3763 351 71.3763 351 71.3763C333.5 71.3763 334.493 119.792 333.5 144Z" fill="white"/>
<path d="M333.5 144V56C333.5 71.3763 316 71.3763 316 71.3763C333.5 71.3763 332.507 119.792 333.5 144Z" fill="white"/>
<path d="M333.5 56V144M333.5 56C333.5 71.3763 316 71.3763 316 71.3763C333.5 71.3763 332.507 119.792 333.5 144M333.5 56C333.5 71.3763 351 71.3763 351 71.3763C333.5 71.3763 334.493 119.792 333.5 144" stroke="white"/>
</svg>
